<svg width="24" height="24" viewBox="0 0 39 36" fill="none" xmlns="http://www.w3.org/2000/svg">
<g clip-path="url(#clip0)">
<path d="M38.6318 17.0739L30.3068 8.25385C29.7951 7.71118 28.941 7.68643 28.3983 8.19852C27.8565 8.71018 27.8313 9.5647 28.3434 10.1069L35.7941 18L28.3434 25.894C27.8313 26.4362 27.8565 27.2903 28.3983 27.8024C28.6593 28.0486 28.9928 28.1705 29.3249 28.1705C29.6836 28.1705 30.0418 28.0283 30.3068 27.7479L38.6319 18.9274C39.1228 18.4068 39.1228 17.5941 38.6318 17.0739Z" fill="#E0E0E0"/>
<path d="M21.5143 6.0131C20.7776 5.91832 20.0882 6.34791 19.9757 6.97364L16.0156 28.9903C15.9031 29.6163 16.4094 30.2016 17.1465 30.2971C17.2158 30.3059 17.2842 30.3102 17.3522 30.3102C18.0078 30.3102 18.5829 29.9038 18.6851 29.3366L22.6451 7.31998C22.7576 6.69384 22.2513 6.10866 21.5143 6.0131Z" fill="#E0E0E0"/>
</g>
<path d="M10.657 26.0636L3.2068 18.17L10.657 10.2766C11.1687 9.7343 11.1439 8.87972 10.6017 8.36812C10.0598 7.85646 9.20484 7.88121 8.69324 8.42346L0.368193 17.2435C-0.122731 17.7637 -0.122731 18.5769 0.368193 19.0971L8.69366 27.9176C8.95916 28.1988 9.31692 28.3406 9.67558 28.3406C10.0077 28.3406 10.3412 28.2182 10.6017 27.972C11.1444 27.4603 11.1687 26.6058 10.657 26.0636Z" fill="#E0E0E0"/>
<defs>
<clipPath id="clip0">
<rect width="36" height="36" fill="white" transform="translate(3)"/>
</clipPath>
</defs>
</svg>
