<svg width="20" height="20" viewBox="0 0 27 21" fill="none" xmlns="http://www.w3.org/2000/svg">
<path d="M27 5.82353C27 2.60471 24.54 0 21.5 0C18.46 0 16 2.60471 16 5.82353C16 8.68235 17.94 11.0435 20.5 11.5412V13.7647H18.5V15.8824H20.5V18H22.5V15.8824H24.5V13.7647H22.5V11.5412C25.06 11.0435 27 8.68235 27 5.82353ZM18 5.82353C18 3.78 19.57 2.11765 21.5 2.11765C23.43 2.11765 25 3.78 25 5.82353C25 7.86706 23.43 9.52941 21.5 9.52941C19.57 9.52941 18 7.86706 18 5.82353Z" fill="#120425"/>
<path d="M8.05238 11.246C9.30301 10.0214 11.3271 10.0535 12.5646 11.3174C13.8021 12.5813 13.7914 14.6056 12.5408 15.8301C11.2902 17.0546 9.26611 17.0226 8.0286 15.7587C6.79108 14.4947 6.80175 12.4705 8.05238 11.246ZM6.76998 9.93621C4.80007 11.865 4.78335 15.0368 6.7326 17.0276C8.68185 19.0184 11.8533 19.0686 13.8232 17.1399C15.7931 15.2111 15.8098 12.0393 13.8606 10.0485C13.1168 9.28883 12.1974 8.81652 11.2315 8.6207L11.2649 3.50857L12.9191 5.19815L14.2151 3.92923L10.3679 -3.81495e-05L6.47996 3.80674L7.76236 5.11649L9.43419 3.47958L9.40721 8.59826C8.44584 8.75711 7.52166 9.20023 6.76998 9.93621Z" fill="#120425"/>
</svg>
