<svg width="25" height="25" viewBox="0 0 36 36" fill="none" xmlns="http://www.w3.org/2000/svg">
<path d="M18 0C8.0748 0 0 8.07491 0 18.0001C0 27.9253 8.0748 36 18 36C27.9252 36 36 27.9253 36 18.0001C36 8.07491 27.9252 0 18 0ZM18 32.7273C9.87927 32.7273 3.27273 26.1207 3.27273 18.0001C3.27273 9.87949 9.87927 3.27273 18 3.27273C26.1207 3.27273 32.7273 9.87949 32.7273 18.0001C32.7273 26.1207 26.1206 32.7273 18 32.7273Z" fill="url(#paint0_linear)"/>
<path d="M17.9997 7.63635C16.7969 7.63635 15.8184 8.61555 15.8184 9.81915C15.8184 11.0217 16.7969 12 17.9997 12C19.2026 12 20.1811 11.0217 20.1811 9.81915C20.1811 8.61555 19.2026 7.63635 17.9997 7.63635Z" fill="black"/>
<path d="M18 15.2727C17.0963 15.2727 16.3636 16.0054 16.3636 16.9091V26.7273C16.3636 27.631 17.0963 28.3636 18 28.3636C18.9037 28.3636 19.6364 27.631 19.6364 26.7273V16.9091C19.6364 16.0054 18.9037 15.2727 18 15.2727Z" fill="black"/>
<defs>
<linearGradient id="paint0_linear" x1="18" y1="0" x2="18" y2="36" gradientUnits="userSpaceOnUse">
<stop stop-color="#5C27FE"/>
<stop offset="1" stop-color="#B65EBA"/>
</linearGradient>
</defs>
</svg>
