<svg width="20" height="20" viewBox="0 0 186 186" fill="none" xmlns="http://www.w3.org/2000/svg">
<path d="M93 15.5C63.0075 15.5 38.75 39.7575 38.75 69.75C38.75 110.438 93 170.5 93 170.5C93 170.5 147.25 110.438 147.25 69.75C147.25 39.7575 122.992 15.5 93 15.5ZM54.25 69.75C54.25 48.36 71.61 31 93 31C114.39 31 131.75 48.36 131.75 69.75C131.75 92.07 109.43 125.472 93 146.32C76.88 125.627 54.25 91.8375 54.25 69.75Z" fill="#120425"/>
<path d="M93 89.125C103.701 89.125 112.375 80.4505 112.375 69.75C112.375 59.0495 103.701 50.375 93 50.375C82.2995 50.375 73.625 59.0495 73.625 69.75C73.625 80.4505 82.2995 89.125 93 89.125Z" fill="#120425"/>
</svg>
