<svg width="24" height="24" viewBox="0 0 36 36" fill="none" xmlns="http://www.w3.org/2000/svg">
<g clip-path="url(#clip0)">
<path d="M32.9489 3.77159C29.0033 -0.0889894 22.6956 -0.0881496 18.7509 3.7735L2.20687 20.3176C-0.784625 23.3797 -0.727454 28.2869 2.33457 31.2784C5.34622 34.2208 10.156 34.2208 13.1677 31.2784L28.1486 16.2975C30.0962 14.35 30.0962 11.1923 28.1486 9.24478C26.2011 7.29724 23.0434 7.29724 21.0959 9.24478L6.76625 23.5743C6.26645 24.0918 6.2808 24.9165 6.79831 25.4163C7.30315 25.9039 8.10347 25.9039 8.60831 25.4163L22.9378 11.0868C23.8881 10.1765 25.3963 10.2089 26.3066 11.1591C27.1893 12.0806 27.1893 13.534 26.3066 14.4555L11.3257 29.4364C9.30191 31.4314 6.04395 31.408 4.04893 29.3842C2.07406 27.3809 2.07406 24.1629 4.04893 22.1596L20.593 5.61548C23.5399 2.66749 28.3186 2.66665 31.2666 5.61349C34.2146 8.56033 34.2154 13.3391 31.2686 16.2871L14.7244 32.8312C14.178 33.2992 14.1143 34.1215 14.5823 34.668C15.0503 35.2144 15.8726 35.2781 16.4191 34.8101C16.4701 34.7665 16.5175 34.719 16.5612 34.668L33.1054 18.1239C37.0254 14.1174 36.9554 7.69163 32.9489 3.77159Z" fill="#E0E0E0"/>
</g>
<defs>
<clipPath id="clip0">
<rect width="36" height="36" fill="white"/>
</clipPath>
</defs>
</svg>
