<svg width="25" height="25" viewBox="0 0 36 36" fill="none" xmlns="http://www.w3.org/2000/svg">
<path d="M18 36C8.0744 36 0 27.9256 0 18C0 8.0744 8.0744 0 18 0C27.9256 0 36 8.0744 36 18C36 27.9256 27.9256 36 18 36ZM18 2.25C9.31503 2.25 2.25 9.31503 2.25 18C2.25 26.685 9.31503 33.75 18 33.75C26.685 33.75 33.75 26.685 33.75 18C33.75 9.31503 26.685 2.25 18 2.25Z" fill="url(#paint0_linear)"/>
<path d="M25.875 19.125H10.125C9.504 19.125 9 18.621 9 18C9 17.379 9.504 16.875 10.125 16.875H25.875C26.496 16.875 27 17.379 27 18C27 18.621 26.496 19.125 25.875 19.125Z" fill="black"/>
<path d="M18 27C17.379 27 16.875 26.496 16.875 25.875V10.125C16.875 9.504 17.379 9 18 9C18.621 9 19.125 9.504 19.125 10.125V25.875C19.125 26.496 18.621 27 18 27Z" fill="black"/>
<defs>
<linearGradient id="paint0_linear" x1="18" y1="0" x2="18" y2="36" gradientUnits="userSpaceOnUse">
<stop stop-color="#612AFB"/>
<stop offset="1" stop-color="#B05ABF"/>
</linearGradient>
</defs>
</svg>
