<svg width="25" height="25" viewBox="0 0 21 21" fill="none" xmlns="http://www.w3.org/2000/svg">
<path d="M20.7434 19.5062L14.7716 13.5344C15.9283 12.1055 16.6248 10.2899 16.6248 8.31243C16.6248 3.72923 12.8956 0 8.31239 0C3.72919 0 0 3.72919 0 8.31239C0 12.8956 3.72923 16.6248 8.31243 16.6248C10.2899 16.6248 12.1055 15.9283 13.5344 14.7716L19.5062 20.7434C19.6768 20.914 19.9008 20.9998 20.1248 20.9998C20.3488 20.9998 20.5728 20.914 20.7434 20.7434C21.0856 20.4013 21.0856 19.8483 20.7434 19.5062ZM8.31243 14.8748C4.69345 14.8748 1.75 11.9314 1.75 8.31239C1.75 4.69341 4.69345 1.74996 8.31243 1.74996C11.9314 1.74996 14.8749 4.69341 14.8749 8.31239C14.8749 11.9314 11.9314 14.8748 8.31243 14.8748Z" fill="#000000"/>
</svg>
