<svg width="40" height="40" viewBox="0 0 52 52" fill="none" xmlns="http://www.w3.org/2000/svg">
<g clip-path="url(#clip0)">
<path d="M51.4954 1.16996C51.4065 1.04618 51.3085 0.932314 51.2034 0.825594C51.1986 0.820436 51.1947 0.814882 51.1895 0.810121C51.1852 0.805757 51.18 0.80179 51.1756 0.797426C50.5873 0.215028 49.7688 -0.101562 48.8214 -0.101562C48.2839 -0.101562 47.7066 2.08616e-07 47.1064 0.200348L2.9159 14.9301C0.577973 15.7097 0.151886 17.0705 0.106262 17.812C0.0602415 18.5538 0.315338 19.9567 2.53861 21.0183L13.6351 26.3178L8.66927 38.5803C8.65697 38.6101 8.64586 38.6402 8.63594 38.6704C8.08409 40.326 8.30626 41.8145 9.24611 42.7539C9.84636 43.3542 10.6704 43.6617 11.6189 43.6617C12.1553 43.6617 12.7314 43.5633 13.3292 43.3641C13.3598 43.3538 13.3896 43.3431 13.4193 43.3308L25.6822 38.3649L30.9813 49.461C31.9942 51.5816 33.3292 51.8985 34.0349 51.8985C34.6653 51.8985 36.2229 51.624 37.0695 49.0837L51.7997 4.89326C52.2849 3.43766 52.177 2.11536 51.4954 1.16996ZM3.4011 18.0163C3.5217 17.9552 3.6796 17.8877 3.87955 17.8211L46.0967 3.7483L22.2791 27.5663C21.4102 26.8356 20.5017 26.2206 19.64 25.8092L3.85139 18.2686C3.66135 18.1777 3.51337 18.0917 3.4011 18.0163ZM12.3239 40.4874C11.7983 40.656 11.5003 40.6271 11.4051 40.5949C11.373 40.4993 11.344 40.2018 11.5126 39.6761L16.3896 27.6334L18.3268 28.559C20.1708 29.4393 22.5603 31.8292 23.4411 33.6728L24.3667 35.6104L12.3239 40.4874ZM34.179 48.1205C34.1123 48.3208 34.0449 48.4783 33.9838 48.5989C33.908 48.4867 33.8215 48.3387 33.7307 48.1479L26.1904 32.3596C25.779 31.4979 25.1641 30.5898 24.4333 29.7206L48.2517 5.90254L34.179 48.1205Z" fill="#E0E0E0"/>
</g>
<defs>
<clipPath id="clip0">
<rect width="52" height="52" fill="white"/>
</clipPath>
</defs>
</svg>
