<svg width="25" height="25" viewBox="0 0 36 36" fill="none" xmlns="http://www.w3.org/2000/svg">
<path d="M25.5654 22.1126C25.243 21.8238 24.7476 21.852 24.4604 22.1736C22.8278 23.9979 20.4738 25.0434 17.9999 25.0434C15.5269 25.0434 13.172 23.9979 11.5395 22.1736C11.2507 21.852 10.7569 21.8238 10.4344 22.1126C10.112 22.4006 10.0854 22.8952 10.3734 23.2176C12.3025 25.3729 15.0824 26.6087 17.9999 26.6087C20.9183 26.6087 23.6981 25.3721 25.6265 23.2176C25.9145 22.8952 25.8871 22.4006 25.5654 22.1126Z" fill="#E0E0E0"/>
<path d="M18 0C8.07496 0 0 8.07496 0 18C0 27.925 8.07496 36 18 36C27.925 36 36 27.925 36 18C36 8.07496 27.925 0 18 0ZM18 34.4348C8.93739 34.4348 1.56522 27.0626 1.56522 18C1.56522 8.93739 8.93739 1.56522 18 1.56522C27.0626 1.56522 34.4348 8.93739 34.4348 18C34.4348 27.0626 27.0626 34.4348 18 34.4348Z" fill="#E0E0E0"/>
<path d="M24.2608 12.5217C22.1032 12.5217 20.3478 14.2771 20.3478 16.4348C20.3478 16.8668 20.6984 17.2174 21.1304 17.2174C21.5624 17.2174 21.913 16.8668 21.913 16.4348C21.913 15.1403 22.9664 14.0869 24.2608 14.0869C25.5553 14.0869 26.6086 15.1403 26.6086 16.4348C26.6086 16.8668 26.9593 17.2174 27.3913 17.2174C27.8233 17.2174 28.1739 16.8668 28.1739 16.4348C28.1739 14.2771 26.4185 12.5217 24.2608 12.5217Z" fill="#E0E0E0"/>
<path d="M14.0869 16.4348C14.0869 16.8668 14.4375 17.2174 14.8695 17.2174C15.3015 17.2174 15.6521 16.8668 15.6521 16.4348C15.6521 14.2771 13.8967 12.5217 11.7391 12.5217C9.58144 12.5217 7.82605 14.2771 7.82605 16.4348C7.82605 16.8668 8.17666 17.2174 8.60866 17.2174C9.04066 17.2174 9.39127 16.8668 9.39127 16.4348C9.39127 15.1403 10.4447 14.0869 11.7391 14.0869C13.0335 14.0869 14.0869 15.1403 14.0869 16.4348Z" fill="#E0E0E0"/>
</svg>
