<svg width="15" height="15" viewBox="0 0 186 186" fill="10E5B2" xmlns="http://www.w3.org/2000/svg">
<path d="M111.6 39.1579V19.5789H74.4V39.1579H111.6ZM18.6 58.7368V166.421H167.4V58.7368H18.6ZM167.4 39.1579C177.723 39.1579 186 47.8705 186 58.7368V166.421C186 177.287 177.723 186 167.4 186H18.6C8.277 186 0 177.287 0 166.421L0.0929999 58.7368C0.0929999 47.8705 8.277 39.1579 18.6 39.1579H55.8V19.5789C55.8 8.71263 64.077 0 74.4 0H111.6C121.923 0 130.2 8.71263 130.2 19.5789V39.1579H167.4Z" fill="#120425"/>
</svg>
